<?xml version="1.0" encoding="UTF-8" standalone="no"?>
<!-- Generator: Adobe Illustrator 22.1.0, SVG Export Plug-In . SVG Version: 6.00 Build 0)  -->

<svg
   xmlns:dc="http://purl.org/dc/elements/1.1/"
   xmlns:cc="http://creativecommons.org/ns#"
   xmlns:rdf="http://www.w3.org/1999/02/22-rdf-syntax-ns#"
   xmlns:svg="http://www.w3.org/2000/svg"
   xmlns="http://www.w3.org/2000/svg"
   xmlns:sodipodi="http://sodipodi.sourceforge.net/DTD/sodipodi-0.dtd"
   xmlns:inkscape="http://www.inkscape.org/namespaces/inkscape"
   version="1.1"
   id="Layer_1"
   x="0px"
   y="0px"
   viewBox="0 0 419.37289 419.37289"
   enable-background="new 0 0 512 512"
   xml:space="preserve"
   sodipodi:docname="favorite-icon.svg"
   width="419.37289"
   height="419.37289"
   inkscape:version="0.92.1 r15371"><metadata
     id="metadata11"><rdf:RDF><cc:Work
         rdf:about=""><dc:format>image/svg+xml</dc:format><dc:type
           rdf:resource="http://purl.org/dc/dcmitype/StillImage" /><dc:title></dc:title></cc:Work></rdf:RDF></metadata><defs
     id="defs9" /><sodipodi:namedview
     pagecolor="#d2d2d2"
     bordercolor="#666666"
     borderopacity="1"
     objecttolerance="10"
     gridtolerance="10"
     guidetolerance="10"
     inkscape:pageopacity="0"
     inkscape:pageshadow="2"
     inkscape:window-width="3200"
     inkscape:window-height="1644"
     id="namedview7"
     showgrid="false"
     fit-margin-top="0"
     fit-margin-left="0"
     fit-margin-right="0"
     fit-margin-bottom="0"
     inkscape:zoom="1.3037281"
     inkscape:cx="62.278398"
     inkscape:cy="147.07667"
     inkscape:window-x="-16"
     inkscape:window-y="-16"
     inkscape:window-maximized="1"
     inkscape:current-layer="Layer_1" /><g
     id="g4511"
     transform="translate(2.5,2.5)"><circle
       r="207.18645"
       cy="207.18645"
       cx="207.18645"
       id="path4488-0"
       style="opacity:1;fill:#ff1666;fill-opacity:1;fill-rule:evenodd;stroke:#ffffff;stroke-width:5;stroke-linecap:butt;stroke-linejoin:round;stroke-miterlimit:4;stroke-dasharray:none;stroke-dashoffset:0;stroke-opacity:1" /><circle
       r="188.20338"
       cy="207.18645"
       cx="207.18645"
       id="path4488"
       style="opacity:1;fill:#ffffff;fill-opacity:1;fill-rule:evenodd;stroke:none;stroke-width:5;stroke-linecap:butt;stroke-linejoin:round;stroke-miterlimit:4;stroke-dasharray:none;stroke-dashoffset:0;stroke-opacity:1" /><path
       style="fill:#ff1666;fill-opacity:1"
       inkscape:connector-curvature="0"
       id="path4"
       d="m 335.18645,171.11865 c 0,-39.701 -32.299,-72.000003 -72,-72.000003 -22.6,0 -42.79,10.475003 -56,26.815003 -13.21,-16.34 -33.4,-26.815003 -56,-26.815003 -39.701,0 -72.000003,32.299003 -72.000003,72.000003 0,0 -6,73.5 128.000003,168 134,-94.5 128,-168 128,-168 z m -178,-32 c -18.748,0 -34,15.252 -34,34 0,2.209 -1.791,4 -4,4 -2.209,0 -4,-1.791 -4,-4 0,-23.159 18.841,-42 42,-42 2.209,0 4,1.791 4,4 0,2.209 -1.791,4 -4,4 z" /></g></svg>